<?xml version="1.0" encoding="UTF-8" standalone="no"?>
<svg
   xmlns:dc="http://purl.org/dc/elements/1.1/"
   xmlns:cc="http://creativecommons.org/ns#"
   xmlns:rdf="http://www.w3.org/1999/02/22-rdf-syntax-ns#"
   xmlns:svg="http://www.w3.org/2000/svg"
   xmlns="http://www.w3.org/2000/svg"
   xmlns:sodipodi="http://sodipodi.sourceforge.net/DTD/sodipodi-0.dtd"
   xmlns:inkscape="http://www.inkscape.org/namespaces/inkscape"
   sodipodi:docname="logo.svg"
   inkscape:version="1.0beta2 (2b71d25, 2019-12-03)"
   id="svg1323"
   version="1.1"
   viewBox="0 0 34.853298 7.1437502"
   height="27"
   width="131.729">
  <defs
     id="defs1317" />
  <sodipodi:namedview
     inkscape:document-rotation="0"
     inkscape:window-maximized="1"
     inkscape:window-y="23"
     inkscape:window-x="0"
     inkscape:window-height="962"
     inkscape:window-width="1680"
     units="px"
     showgrid="false"
     inkscape:current-layer="layer1"
     inkscape:document-units="px"
     inkscape:cy="13.5"
     inkscape:cx="65.864502"
     inkscape:zoom="2.0041145"
     inkscape:pageshadow="2"
     inkscape:pageopacity="0.0"
     borderopacity="1.0"
     bordercolor="#666666"
     pagecolor="#ffffff"
     id="base" />
  <metadata
     id="metadata1320">
    <rdf:RDF>
      <cc:Work
         rdf:about="">
        <dc:format>image/svg+xml</dc:format>
        <dc:type
           rdf:resource="http://purl.org/dc/dcmitype/StillImage" />
        <dc:title />
      </cc:Work>
    </rdf:RDF>
  </metadata>
  <g
     transform="translate(0,-289.85624)"
     id="layer1"
     inkscape:groupmode="layer"
     inkscape:label="Ebene 1">
    <path
       id="path1312"
       d="M 2.7037361,289.85806 H 0.93056631 A 0.93097879,0.93097879 0 0 0 -6.5297439e-7,290.78894 v 3.94933 A 0.93097879,0.93097879 0 0 0 0.10810097,295.17198 c -0.0097873,0.0794 -0.03166478,0.16937 -0.03505515,0.24726 -0.0031985,0.0796 -0.0044778,0.15728 0.0019191,0.24561 0.0057572,0.0883 -0.01388132,0.156 0.08594908,0.39536 0.23764573,0.56889 0.65275493,0.6581 0.9467576,0.73684 0.2836524,0.0758 0.581314,0.0926 1.0413105,0.0879 l 0.3940313,-0.004 a 0.93097879,0.93097879 0 0 0 0.4700844,-0.13421 0.93097879,0.93097879 0 0 0 0.3236268,0.13321 l 0.072061,0.0146 c 0,5e-5 0,-7e-5 0.00192,0 h 0.00256 c 0.1930335,0.0393 0.4038058,0.0656 0.6059422,0.0836 0.4051236,0.0362 0.8054048,0.0284 1.2161577,-0.0324 0.3473721,-0.0514 0.6693933,-0.13005 0.9712194,-0.24694 0.1545305,-0.0598 0.2944312,-0.11382 0.4674232,-0.23404 0.01337,-0.009 0.026675,-0.0283 0.040301,-0.039 0.4861791,0.36952 1.0969766,0.56461 1.7206191,0.56461 0.6995485,0 1.3852923,-0.24409 1.8902018,-0.70808 0.507487,0.4693 1.199896,0.70808 1.902426,0.70808 0.679276,0 1.343827,-0.23248 1.844591,-0.67007 0.03115,0.0365 0.05341,0.078 0.08825,0.1124 0.426477,0.42131 1.005034,0.55767 1.55996,0.55767 0.323391,0 0.645322,-0.0483 0.952381,-0.14611 a 0.93097879,0.93097879 0 0 0 0.336184,-0.19273 c 0.02079,0.01 0.03755,0.0263 0.05853,0.0357 a 0.93097879,0.93097879 0 0 0 0.0073,0.003 c 0.467123,0.20438 0.978749,0.29983 1.504755,0.29983 0.724433,0 1.408155,-0.15972 1.953992,-0.57288 0.0348,-0.0264 0.06051,-0.063 0.09357,-0.0916 0.491271,0.43232 1.145446,0.66445 1.811839,0.66445 0.635521,0 1.270442,-0.20352 1.747729,-0.61783 0.495435,0.4049 1.134597,0.61783 1.787403,0.61783 0.502408,0 0.995304,-0.13179 1.424083,-0.37156 a 0.93097879,0.93097879 0 0 0 0.683953,0.30115 h 1.187742 a 0.93097879,0.93097879 0 0 0 0.918663,-0.78444 c 0.02149,0.0224 0.03678,0.0498 0.05917,0.0714 a 0.93097879,0.93097879 0 0 0 0.0026,0.002 c 0.542638,0.52148 1.295915,0.78147 2.065413,0.78147 0.431019,0 0.859344,-0.0856 1.251533,-0.2595 a 0.93097879,0.93097879 0 0 0 0.0032,-0.002 c 0.392145,-0.17578 0.748607,-0.44072 1.003953,-0.79337 a 0.93097879,0.93097879 0 0 0 0.09455,-0.92592 0.93097879,0.93097879 0 0 0 0.184448,-0.55437 v -0.46151 c 2.6e-5,-0.75542 -0.216075,-1.48899 -0.715029,-2.02308 -0.492045,-0.52876 -1.221102,-0.79701 -1.949699,-0.79701 -0.413548,0 -0.813203,0.10021 -1.1851,0.26446 a 0.93097879,0.93097879 0 0 0 -0.33492,-0.18188 c -0.20403,-0.0611 -0.402648,-0.0816 -0.598656,-0.0816 -0.198177,0 -0.391485,0.0489 -0.578506,0.12 a 0.93097879,0.93097879 0 0 0 -0.295531,-0.0493 h -1.113692 a 0.93097879,0.93097879 0 0 0 -0.686588,0.30379 c -0.42965,-0.24124 -0.924151,-0.37454 -1.428401,-0.37454 -0.506285,0 -1.007036,0.11391 -1.440946,0.36396 -0.122303,0.0705 -0.221129,0.1733 -0.329582,0.2638 -0.478797,-0.42554 -1.122277,-0.62742 -1.768225,-0.62742 -0.425012,0 -0.839475,0.10416 -1.219804,0.28527 -0.05911,-0.1464 -0.110942,-0.29658 -0.198663,-0.42775 -0.26221,-0.39435 -0.645379,-0.70302 -1.075681,-0.89619 -0.425485,-0.19193 -0.893363,-0.27965 -1.372537,-0.27965 -0.477524,0 -0.940041,0.0787 -1.366236,0.24992 -0.29287,0.11609 -0.553129,0.29609 -0.788408,0.50576 a 0.93097879,0.93097879 0 0 0 -0.696843,-0.31503 h -1.187742 a 0.93097879,0.93097879 0 0 0 -0.930887,0.93088 v 0.13058 a 0.93097879,0.93097879 0 0 0 -0.13454,0.0899 c -0.383304,-0.17582 -0.806044,-0.27404 -1.236334,-0.27404 -0.506265,0 -1.007029,0.11387 -1.440958,0.36396 -0.165731,0.0955 -0.307071,0.22619 -0.446588,0.35734 -0.5061122,-0.4725 -1.1985089,-0.7213 -1.9050811,-0.7213 -0.5062718,0 -1.0070358,0.11387 -1.4409648,0.36396 -0.2621012,0.15104 -0.4806585,0.36234 -0.6727069,0.59634 -0.031345,-0.0298 -0.054118,-0.0671 -0.087267,-0.0952 -0.6002873,-0.50957 -1.3919963,-0.71204 -2.2435868,-0.71204 -0.119373,0 -0.2303532,0.0353 -0.3477624,0.046 v -0.58611 a 0.93097879,0.93097879 0 0 0 -0.9312066,-0.93088 z m 0,0.93088 v 1.83268 c 0.3296655,-0.24166 0.7560269,-0.36166 1.2786492,-0.36164 0.7084658,0 1.255454,0.16339 1.6412653,0.4909 0.3858304,0.32748 0.5788448,0.7881 0.5788448,1.38211 v 0.0575 c 0,0.21386 -0.025843,0.40906 -0.07471,0.58774 -0.00928,0 -0.040429,0.0207 -0.069765,0.0456 -0.1905964,0.16157 -0.5740024,0.28983 -0.9890604,0.33058 -0.2369357,0.0233 -0.6635978,0.0255 -0.9163466,0.005 -0.058084,-0.005 -0.1359411,-0.0147 -0.2194849,-0.0268 0.1985349,-0.0601 0.3347127,-0.17357 0.4069339,-0.34214 0.056037,-0.12875 0.084286,-0.35228 0.084286,-0.67073 0,-0.35235 -0.073507,-0.60298 -0.2208218,-0.75205 -0.1437965,-0.15132 -0.3667549,-0.22711 -0.6684082,-0.22711 -0.3998398,0 -0.6770761,0.0981 -0.8313827,0.29455 v 1.45714 c 0.00576,0.007 0.01305,0.0135 0.018807,0.0205 -0.06301,-0.002 -0.1040268,-0.004 -0.2211481,-0.004 -0.2140858,0 -0.5675863,0.003 -0.7854271,0.006 -0.4374537,0.007 -0.4831661,0.002 -0.6495757,-0.0827 0,0 -0.053862,-0.0227 -0.0776842,-0.0393 -0.0217495,-0.0152 -0.058212,-0.0546 -0.058212,-0.0546 v -3.94932 z m 15.8567919,0 c 0.368866,0 0.699043,0.0658 0.990391,0.19735 0.293689,0.13158 0.521503,0.3196 0.683613,0.56395 0.162124,0.24201 0.243295,0.51923 0.243295,0.83172 h -1.233353 c 0,-0.20911 -0.06483,-0.37114 -0.194051,-0.48626 -0.12687,-0.11514 -0.299491,-0.17289 -0.517991,-0.17289 -0.22086,0 -0.395726,0.0494 -0.52495,0.14809 -0.126877,0.0963 -0.190411,0.21986 -0.190411,0.37024 0,0.13156 0.07027,0.25126 0.211245,0.35932 0.14097,0.10573 0.388991,0.2161 0.743777,0.33125 0.354767,0.11277 0.646115,0.23502 0.874031,0.3666 0.554486,0.31953 0.831703,0.76007 0.831703,1.32162 0,0.44875 -0.169077,0.80105 -0.507417,1.05716 -0.338333,0.2561 -0.802302,0.38412 -1.392028,0.38412 -0.415871,0 -0.793213,-0.0738 -1.131552,-0.22182 -0.33598,-0.15037 -0.589451,-0.35476 -0.760972,-0.6132 -0.169167,-0.2608 -0.253875,-0.5605 -0.253875,-0.89883 h 1.240633 c 0,0.2749 0.07026,0.478 0.211226,0.60958 0.143323,0.12922 0.374994,0.19404 0.69454,0.19404 0.204407,0 0.365142,-0.0437 0.482622,-0.13058 0.119834,-0.0893 0.17983,-0.21378 0.17983,-0.37353 0,-0.18092 -0.06449,-0.32179 -0.193705,-0.42281 -0.126877,-0.10103 -0.351485,-0.20563 -0.673372,-0.31371 -0.321881,-0.10807 -0.585005,-0.21268 -0.789406,-0.31371 -0.664909,-0.32657 -0.997338,-0.77514 -0.997338,-1.34608 0,-0.28429 0.08214,-0.53456 0.24662,-0.75073 0.166813,-0.21851 0.402009,-0.38759 0.705101,-0.50742 0.30308,-0.12218 0.643512,-0.18347 1.021794,-0.18347 z m -4.039236,0.44065 h 1.18773 v 0.94808 h 0.62743 v 0.82444 h -0.62743 v 1.74476 c 0,0.14332 0.02597,0.24309 0.07768,0.29949 0.05169,0.0564 0.153718,0.0846 0.306451,0.0846 0.117473,0 0.2163,-0.007 0.296191,-0.0212 v 0.84924 c -0.213817,0.0681 -0.437147,0.10214 -0.669752,0.10214 -0.408808,0 -0.710736,-0.0962 -0.905747,-0.28891 -0.195016,-0.19266 -0.292557,-0.4853 -0.292557,-0.87768 v -1.89251 h -0.486275 v -0.82444 h 0.486275 z m 6.482471,0.31437 c -0.0019,0 -0.0019,0.002 -0.0026,0.003 0,0 -0.0019,0 -0.0026,0.002 z m 9.727028,0.006 c 0,0 -0.0019,0.002 -0.0019,0.002 -0.0019,0 -0.0026,0 -0.0032,0.002 z m -22.3039059,0.55668 c 0.5709383,0 1.0211154,0.17745 1.350058,0.53222 0.3289429,0.35243 0.4932159,0.83309 0.4932159,1.44162 v 0.0423 c 0,0.59443 -0.165559,1.06641 -0.4968557,1.41651 -0.3289234,0.34772 -0.775256,0.52163 -1.3391385,0.52163 -0.5427406,0 -0.9788318,-0.16204 -1.3077232,-0.48628 -0.3289427,-0.32657 -0.5060479,-0.76842 -0.5318915,-1.32524 l -0.00384,-0.20067 c 0,-0.38063 0.074115,-0.71913 0.2221396,-1.01517 0.148012,-0.29839 0.3604219,-0.52749 0.6376773,-0.68726 0.2772363,-0.15978 0.6026031,-0.23966 0.9761579,-0.23966 z m 3.7926339,0 c 0.570938,0 1.020796,0.17745 1.349732,0.53222 0.328923,0.35243 0.493542,0.83309 0.493542,1.44162 v 0.0423 c 0,0.59443 -0.165578,1.06641 -0.496856,1.41651 -0.328923,0.34772 -0.775262,0.52163 -1.339138,0.52163 -0.542741,0 -0.9788,-0.16204 -1.30773,-0.48628 -0.328936,-0.32657 -0.50638,-0.76842 -0.532224,-1.32524 l -0.0032,-0.20067 c 0,-0.38063 0.07379,-0.71913 0.2218,-1.01517 0.148031,-0.29839 0.360761,-0.52749 0.638017,-0.68726 0.27723,-0.15978 0.602603,-0.23966 0.976157,-0.23966 z m 13.74644,0 c 0.570938,0 1.020776,0.17745 1.349719,0.53222 0.328924,0.35243 0.493536,0.83309 0.493536,1.44162 v 0.0423 c 0,0.59443 -0.165559,1.06641 -0.496837,1.41651 -0.328942,0.34772 -0.775601,0.52163 -1.339477,0.52163 -0.542741,0 -0.97848,-0.16204 -1.307404,-0.48628 -0.328942,-0.32657 -0.506367,-0.76842 -0.532211,-1.32524 l -0.0032,-0.20067 c 0,-0.38063 0.07381,-0.71913 0.221819,-1.01517 0.148012,-0.29839 0.360761,-0.52749 0.637998,-0.68726 0.277249,-0.15978 0.602603,-0.23966 0.976177,-0.23966 z m 4.102699,0 c 0.126877,0 0.237262,0.014 0.331246,0.0423 l -0.02117,1.10312 -0.391076,-0.0281 c -0.373567,0 -0.613267,0.11743 -0.718982,0.35238 v 2.41416 h -1.187743 v -3.81313 h 1.113698 l 0.0387,0.4899 c 0.199693,-0.37357 0.478215,-0.56064 0.835336,-0.56064 z m 2.11863,0 c 0.535704,0 0.958592,0.16685 1.268734,0.50048 0.310135,0.3313 0.46512,0.7943 0.465101,1.38873 v 0.46148 h -2.361252 c 0.04228,0.2138 0.135033,0.38195 0.278337,0.50412 0.143323,0.12218 0.329109,0.18313 0.557005,0.18313 0.375928,0 0.669515,-0.13154 0.880978,-0.39469 l 0.542786,0.64163 c -0.148006,0.20441 -0.35817,0.36773 -0.630718,0.4899 -0.270193,0.11983 -0.561541,0.17951 -0.874031,0.17951 -0.585037,0 -1.05864,-0.17391 -1.420462,-0.52164 -0.36183,-0.35009 -0.542792,-0.80442 -0.542792,-1.36361 v -0.0988 c 0,-0.39001 0.07188,-0.7343 0.215205,-1.03269 0.145671,-0.29839 0.357121,-0.52846 0.634358,-0.69057 0.277249,-0.16446 0.60614,-0.24694 0.986751,-0.24694 z m -9.760082,0 c 0.495755,0 0.889134,0.13732 1.180463,0.41222 0.291354,0.2749 0.437012,0.6471 0.437012,1.11699 h -1.113359 c 0,-0.19735 -0.04843,-0.34881 -0.144794,-0.45452 -0.09632,-0.10574 -0.225306,-0.15868 -0.387417,-0.15868 -0.307788,0 -0.487478,0.19637 -0.539171,0.58875 -0.01644,0.12451 -0.02482,0.29585 -0.02482,0.51435 0,0.38299 0.04587,0.64866 0.137521,0.79669 0.09165,0.14801 0.237306,0.2218 0.437025,0.2218 0.166812,0 0.295781,-0.0446 0.387417,-0.13388 0.09163,-0.0916 0.136568,-0.21837 0.134214,-0.38047 h 1.113359 c 0,0.4182 -0.150162,0.76121 -0.450888,1.02905 -0.29839,0.26786 -0.68376,0.40165 -1.156007,0.40165 -0.554485,0 -0.99151,-0.17391 -1.311043,-0.52164 -0.319533,-0.34774 -0.479322,-0.82935 -0.479322,-1.44493 v -0.0493 c 0,-0.38532 0.0706,-0.72479 0.211566,-1.01848 0.143323,-0.29605 0.348658,-0.5229 0.616497,-0.68032 0.267858,-0.15978 0.585191,-0.23932 0.951722,-0.23932 z m -14.0003209,0.91601 c -0.3970635,0 -0.6120449,0.29487 -0.6449315,0.8846 l -0.0032,0.2152 c 0,0.35243 0.055206,0.61073 0.16561,0.77519 0.1104237,0.16446 0.27375,0.2466 0.489902,0.2466 0.4229135,0 0.6388609,-0.32535 0.6482515,-0.97618 v -0.11966 c 0,-0.68371 -0.2185061,-1.02575 -0.6555312,-1.02575 z m 3.7926339,0 c -0.397063,0 -0.612051,0.29487 -0.644931,0.8846 l -0.0032,0.2152 c 0,0.35243 0.05521,0.61073 0.16561,0.77519 0.110417,0.16446 0.27375,0.2466 0.489902,0.2466 0.422907,0 0.638855,-0.32535 0.648252,-0.97618 v -0.11966 c 0,-0.68371 -0.218506,-1.02575 -0.655532,-1.02575 z m 13.74644,0 c -0.397063,0 -0.612096,0.29487 -0.644931,0.8846 l -0.0038,0.2152 c 0,0.35243 0.05553,0.61073 0.16593,0.77519 0.110437,0.16446 0.27343,0.2466 0.489582,0.2466 0.422907,0 0.639181,-0.32535 0.648572,-0.97618 v -0.11966 c 0,-0.68371 -0.218506,-1.02575 -0.655512,-1.02575 z m 6.214055,0 c -0.34773,0 -0.554351,0.23039 -0.620143,0.69089 h 1.198323 v -0.0916 c 0.0045,-0.19032 -0.04344,-0.33727 -0.144475,-0.44064 -0.101026,-0.10574 -0.245737,-0.15868 -0.433705,-0.15868 z m -0.06346,0.40164 0.08826,0.10182 H 32.01475 Z m -25.9183475,1.6588 c 0.05802,0 0.1001247,0.36513 0.055525,0.48198 -0.040621,0.10639 -0.129058,0.168 -0.3841161,0.26676 -0.2251589,0.0872 -0.4771722,0.15046 -0.7715522,0.19405 -0.204241,0.0303 -0.7807446,0.0454 -0.996999,0.0261 v 0 c -0.1615672,-0.0144 -0.3923938,-0.046 -0.5054338,-0.0691 l -0.075708,-0.0152 -0.032752,-0.0866 c -0.024308,-0.064 -0.041772,-0.0899 -0.067756,-0.10017 -0.2146104,-0.0845 -0.3375721,-0.1104 -0.5249508,-0.1104 -0.095967,0 -0.2495952,0.0305 -0.2733725,0.0542 -0.00659,0.007 -0.028786,0.0601 -0.049576,0.119 l -0.037678,0.10678 -0.3943576,0.004 c -0.4402747,0.004 -0.6102218,-0.008 -0.7913891,-0.0562 -0.1858178,-0.0498 -0.2945143,-0.1148 -0.3285844,-0.19637 -0.0326882,-0.0784 -0.019447,-0.38526 0.023797,-0.54609 l 0.015545,-0.0575 0.07801,0.0394 c 0.1664096,0.084 0.2121412,0.0898 0.6495757,0.0826 0.2178408,-0.003 0.5710214,-0.006 0.7851073,-0.006 0.3873657,0 0.3902763,0 0.5930396,0.0446 0.1120614,0.0244 0.2380552,0.0564 0.2799934,0.0708 0.113232,0.0389 0.5690256,0.11788 0.7781539,0.13486 0.2527424,0.0205 0.6797499,0.018 0.9166856,-0.005 0.415058,-0.0407 0.7984321,-0.169 0.9890604,-0.33056 0.02949,-0.025 0.061027,-0.0453 0.070085,-0.0453 z m -5.55128281,0.58015 c 0.003838,0.002 0.0155445,0.005 0.0198305,0.007 0.001919,0 0.0379977,0.0205 0.0379977,0.0205 z"
       style="color:#000000;font-style:normal;font-variant:normal;font-weight:900;font-stretch:normal;font-size:medium;line-height:125%;font-family:Roboto;-inkscape-font-specification:'Roboto Heavy';font-variant-ligatures:normal;font-variant-position:normal;font-variant-caps:normal;font-variant-numeric:normal;font-variant-alternates:normal;font-feature-settings:normal;text-indent:0;text-align:start;text-decoration:none;text-decoration-line:none;text-decoration-style:solid;text-decoration-color:#000000;letter-spacing:-0.41804200000000002px;word-spacing:0px;text-transform:none;writing-mode:lr-tb;direction:ltr;text-orientation:mixed;dominant-baseline:auto;baseline-shift:baseline;text-anchor:start;white-space:normal;shape-padding:0;clip-rule:nonzero;display:inline;overflow:visible;visibility:visible;isolation:auto;mix-blend-mode:normal;color-interpolation:sRGB;color-interpolation-filters:linearRGB;solid-color:#000000;solid-opacity:1;vector-effect:none;fill:#212529;fill-opacity:1;fill-rule:nonzero;stroke:none;stroke-width:1.86177;stroke-linecap:round;stroke-linejoin:round;stroke-miterlimit:4;stroke-dasharray:none;stroke-dashoffset:0;stroke-opacity:1;color-rendering:auto;image-rendering:auto;shape-rendering:auto;text-rendering:auto;enable-background:accumulate"
       inkscape:connector-curvature="0" />
    <path
       inkscape:connector-curvature="0"
       id="path1189"
       style="font-style:normal;font-variant:normal;font-weight:900;font-stretch:normal;font-size:medium;line-height:125%;font-family:Roboto;-inkscape-font-specification:'Roboto Heavy';letter-spacing:-0.418042px;word-spacing:0px;fill:none;fill-opacity:1;stroke:none;stroke-width:0.180443px;stroke-linecap:butt;stroke-linejoin:miter;stroke-opacity:1"
       d="m 6.5912237,294.04896 q 0,-0.57094 0.2220309,-1.015 0.2220308,-0.44758 0.6378948,-0.68723 0.4158641,-0.23966 0.9762219,-0.23966 0.856401,0 1.3498021,0.53217 0.4934016,0.52864 0.4934016,1.44143 v 0.0423 q 0,0.89164 -0.4969263,1.41676 -0.4934011,0.52159 -1.339228,0.52159 -0.8141046,0 -1.3075058,-0.48635 -0.4934011,-0.48987 -0.5321665,-1.32513 z m 1.187685,0.074 q 0,0.52864 0.1656419,0.77535 0.1656356,0.2467 0.4898701,0.2467 0.6343701,0 0.648469,-0.97623 v -0.11982 q 0,-1.02557 -0.6555184,-1.02557 -0.5955985,0 -0.6449379,0.88459 z" />
    <path
       inkscape:connector-curvature="0"
       id="path1191"
       style="font-style:normal;font-variant:normal;font-weight:900;font-stretch:normal;font-size:medium;line-height:125%;font-family:Roboto;-inkscape-font-specification:'Roboto Heavy';letter-spacing:-0.418042px;word-spacing:0px;fill:none;fill-opacity:1;stroke:none;stroke-width:0.180443px;stroke-linecap:butt;stroke-linejoin:miter;stroke-opacity:1"
       d="m 10.383781,294.04896 q 0,-0.57094 0.222024,-1.015 0.222031,-0.44758 0.637895,-0.68723 0.415871,-0.23966 0.976229,-0.23966 0.856401,0 1.349802,0.53217 0.493394,0.52864 0.493394,1.44143 v 0.0423 q 0,0.89164 -0.496919,1.41676 -0.493401,0.52159 -1.339228,0.52159 -0.814111,0 -1.307512,-0.48635 -0.493395,-0.48987 -0.532167,-1.32513 z m 1.187679,0.074 q 0,0.52864 0.165641,0.77535 0.165642,0.2467 0.489877,0.2467 0.63437,0 0.648469,-0.97623 v -0.11982 q 0,-1.02557 -0.655518,-1.02557 -0.595605,0 -0.644945,0.88459 z" />
    <path
       inkscape:connector-curvature="0"
       id="path1193"
       style="font-style:normal;font-variant:normal;font-weight:900;font-stretch:normal;font-size:medium;line-height:125%;font-family:Roboto;-inkscape-font-specification:'Roboto Heavy';letter-spacing:-0.418042px;word-spacing:0px;fill:none;fill-opacity:1;stroke:none;stroke-width:0.180443px;stroke-linecap:butt;stroke-linejoin:miter;stroke-opacity:1"
       d="m 15.709393,291.22953 v 0.94803 h 0.627327 v 0.82468 h -0.627327 v 1.74452 q 0,0.21498 0.07754,0.29957 0.07753,0.0846 0.306611,0.0846 0.176216,0 0.296043,-0.0212 v 0.84935 q -0.320709,0.10221 -0.669617,0.10221 -0.613222,0 -0.90574,-0.289 -0.292512,-0.28898 -0.292512,-0.87754 v -1.89254 h -0.486352 v -0.82468 h 0.486352 v -0.94803 z" />
    <path
       inkscape:connector-curvature="0"
       id="path1195"
       style="font-style:normal;font-variant:normal;font-weight:900;font-stretch:normal;font-size:medium;line-height:125%;font-family:Roboto;-inkscape-font-specification:'Roboto Heavy';letter-spacing:-0.418042px;word-spacing:0px;fill:none;fill-opacity:1;stroke:none;stroke-width:0.180443px;stroke-linecap:butt;stroke-linejoin:miter;stroke-opacity:1"
       d="m 19.241154,294.62694 q 0,-0.27137 -0.193839,-0.42292 -0.190309,-0.15154 -0.673136,-0.31366 -0.482827,-0.16211 -0.789438,-0.31366 -0.99737,-0.48987 -0.99737,-1.34627 0,-0.42644 0.246697,-0.75068 0.250222,-0.32776 0.704858,-0.5075 0.45463,-0.18326 1.022043,-0.18326 0.553309,0 0.990321,0.19736 0.440537,0.19736 0.683709,0.56389 0.24318,0.363 0.24318,0.83173 h -1.2335 q 0,-0.31366 -0.19384,-0.48635 -0.190308,-0.17269 -0.518067,-0.17269 -0.331284,0 -0.525118,0.14802 -0.190308,0.1445 -0.190308,0.37005 0,0.19736 0.211457,0.35948 0.211456,0.15859 0.743623,0.33128 0.532166,0.16916 0.874018,0.36652 0.831735,0.47931 0.831735,1.32161 0,0.67313 -0.5075,1.05728 -0.507494,0.38415 -1.392093,0.38415 -0.623796,0 -1.131296,-0.22203 -0.503969,-0.22556 -0.76124,-0.61323 -0.253747,-0.39119 -0.253747,-0.89869 h 1.240543 q 0,0.41235 0.211457,0.6097 0.214981,0.19384 0.694283,0.19384 0.306611,0 0.482827,-0.1304 0.179741,-0.13392 0.179741,-0.37357 z" />
    <path
       inkscape:connector-curvature="0"
       id="path1198"
       style="font-style:normal;font-variant:normal;font-weight:900;font-stretch:normal;font-size:medium;line-height:125%;font-family:Roboto;-inkscape-font-specification:'Roboto Heavy';letter-spacing:-0.418042px;word-spacing:0px;fill:none;fill-opacity:1;stroke:none;stroke-width:0.180443px;stroke-linecap:butt;stroke-linejoin:miter;stroke-opacity:1"
       d="m 22.409909,295.14501 q 0.250222,0 0.387673,-0.13393 0.137444,-0.13744 0.133919,-0.38062 h 1.113673 q 0,0.62732 -0.451105,1.02909 -0.447586,0.40177 -1.155969,0.40177 -0.831728,0 -1.31103,-0.52159 -0.479303,-0.5216 -0.479303,-1.44496 v -0.0493 q 0,-0.57799 0.211457,-1.01852 0.214982,-0.44406 0.616753,-0.68018 0.401765,-0.23966 0.951555,-0.23966 0.743624,0 1.18063,0.41234 0.437012,0.41235 0.437012,1.1172 h -1.113673 q 0,-0.29604 -0.144493,-0.45463 -0.144494,-0.15859 -0.387673,-0.15859 -0.461679,0 -0.539216,0.58855 -0.02469,0.18679 -0.02469,0.51455 0,0.57445 0.137444,0.79648 0.137451,0.22204 0.437012,0.22204 z" />
    <path
       inkscape:connector-curvature="0"
       id="path1200"
       style="font-style:normal;font-variant:normal;font-weight:900;font-stretch:normal;font-size:medium;line-height:125%;font-family:Roboto;-inkscape-font-specification:'Roboto Heavy';letter-spacing:-0.418042px;word-spacing:0px;fill:none;fill-opacity:1;stroke:none;stroke-width:0.180443px;stroke-linecap:butt;stroke-linejoin:miter;stroke-opacity:1"
       d="m 24.130189,294.04896 q 0,-0.57094 0.222024,-1.015 0.222031,-0.44758 0.637895,-0.68723 0.415871,-0.23966 0.976228,-0.23966 0.856402,0 1.349803,0.53217 0.493394,0.52864 0.493394,1.44143 v 0.0423 q 0,0.89164 -0.496919,1.41676 -0.493401,0.52159 -1.339228,0.52159 -0.814111,0 -1.307506,-0.48635 -0.493401,-0.48987 -0.532166,-1.32513 z m 1.187678,0.074 q 0,0.52864 0.165642,0.77535 0.165642,0.2467 0.489877,0.2467 0.63437,0 0.648469,-0.97623 v -0.11982 q 0,-1.02557 -0.655519,-1.02557 -0.595604,0 -0.644944,0.88459 z" />
    <g
       style="fill:none;fill-opacity:1"
       id="g1210"
       transform="matrix(0.61490582,0,0,0.61490582,393.03936,128.92069)">
      <path
         style="font-style:normal;font-variant:normal;font-weight:900;font-stretch:normal;font-size:medium;line-height:125%;font-family:Roboto;-inkscape-font-specification:'Roboto Heavy';letter-spacing:-0.418042px;word-spacing:0px;fill:none;fill-opacity:1;stroke:none;stroke-width:0.351531px;stroke-linecap:butt;stroke-linejoin:miter;stroke-opacity:1"
         d="m -634.78877,263.24078 -2.88353,0.001 v 6.42282 c 0,0 0.0589,0.0637 0.0942,0.0884 0.0387,0.0271 0.1266,0.0641 0.1266,0.0641 0.27064,0.13663 0.34488,0.14597 1.05627,0.13438 0.35428,-0.005 0.92927,-0.0103 1.27743,-0.0103 0.19048,2.3e-4 0.25726,0.003 0.35968,0.006 -0.009,-0.0114 -0.0212,-0.0217 -0.0305,-0.0336 v -2.36938 c 0.25096,-0.31956 0.70162,-0.47902 1.35186,-0.47902 0.49057,0 0.85289,0.12287 1.08675,0.36896 0.23956,0.24244 0.35917,0.65016 0.35917,1.22317 0,0.51789 -0.0458,0.88154 -0.13694,1.0909 -0.11743,0.27416 -0.33912,0.45879 -0.66199,0.55655 0.13589,0.0196 0.26257,0.0357 0.35708,0.0434 0.411,0.0334 1.10503,0.0295 1.49035,-0.008 0.675,-0.0663 1.2987,-0.27469 1.60869,-0.53742 0.0478,-0.0405 0.0981,-0.0736 0.11319,-0.0739 0.0795,-0.29057 0.12141,-0.6082 0.12141,-0.95602 v -0.0935 c 0,-0.96602 -0.31358,-1.71535 -0.94101,-2.24793 -0.62744,-0.5326 -1.51744,-0.7984 -2.6696,-0.7984 -0.84992,-3e-5 -1.54281,0.19558 -2.07896,0.58859 z"
         id="path1206"
         inkscape:connector-curvature="0"
         sodipodi:nodetypes="cccaccccccscsccccccsscccc" />
      <path
         inkscape:connector-curvature="0"
         id="path1208"
         d="m -632.51668,271.80112 c -0.26275,-0.0234 -0.63854,-0.0748 -0.82239,-0.11242 l -0.12274,-0.0251 -0.0533,-0.1405 c -0.0395,-0.10401 -0.0682,-0.14634 -0.11047,-0.163 -0.34902,-0.13747 -0.54898,-0.17952 -0.85369,-0.17952 -0.15607,0 -0.40561,0.0495 -0.4443,0.0881 -0.0106,0.0106 -0.0468,0.0975 -0.0806,0.1932 l -0.0614,0.17401 -0.64122,0.006 c -0.71599,0.007 -0.99278,-0.0127 -1.28741,-0.0915 -0.3022,-0.0809 -0.47887,-0.18635 -0.53428,-0.31897 -0.0532,-0.1275 -0.0314,-0.62701 0.0389,-0.88857 l 0.0251,-0.0934 0.12688,0.064 c 0.27063,0.13662 0.34482,0.14606 1.0562,0.13447 0.35427,-0.005 0.92898,-0.0102 1.27714,-0.01 0.62995,7.6e-4 0.63461,7.7e-4 0.96434,0.0729 0.18223,0.0397 0.38713,0.0913 0.45533,0.11473 0.18415,0.0633 0.92539,0.19172 1.2655,0.21936 0.41101,0.0334 1.1052,0.0295 1.49051,-0.008 0.67502,-0.0663 1.29874,-0.27479 1.60875,-0.53756 0.048,-0.0407 0.0994,-0.074 0.11419,-0.074 0.0944,0 0.16264,0.5942 0.0901,0.78422 -0.0661,0.17304 -0.20993,0.27284 -0.62473,0.43344 -0.36617,0.14178 -0.77617,0.24497 -1.25492,0.31584 -0.33214,0.0492 -1.26969,0.0735 -1.62141,0.0421 z"
         style="opacity:1;fill:none;fill-opacity:1;stroke:none;stroke-width:0.444921;stroke-miterlimit:4;stroke-dasharray:none;stroke-opacity:1" />
    </g>
  </g>
</svg>
