<?xml version="1.0" encoding="UTF-8" standalone="no"?>
<!-- Created with Inkscape (http://www.inkscape.org/) -->

<svg
   xmlns:dc="http://purl.org/dc/elements/1.1/"
   xmlns:cc="http://creativecommons.org/ns#"
   xmlns:rdf="http://www.w3.org/1999/02/22-rdf-syntax-ns#"
   xmlns:svg="http://www.w3.org/2000/svg"
   xmlns="http://www.w3.org/2000/svg"
   xmlns:sodipodi="http://sodipodi.sourceforge.net/DTD/sodipodi-0.dtd"
   xmlns:inkscape="http://www.inkscape.org/namespaces/inkscape"
   width="131.729"
   height="27"
   viewBox="0 0 34.853298 7.1437502"
   version="1.1"
   id="svg1323"
   inkscape:version="0.92.2 5c3e80d, 2017-08-06"
   sodipodi:docname="logo.svg">
  <defs
     id="defs1317" />
  <sodipodi:namedview
     id="base"
     pagecolor="#ffffff"
     bordercolor="#666666"
     borderopacity="1.0"
     inkscape:pageopacity="0.0"
     inkscape:pageshadow="2"
     inkscape:zoom="0.35"
     inkscape:cx="-308.57143"
     inkscape:cy="560"
     inkscape:document-units="px"
     inkscape:current-layer="layer1"
     showgrid="false"
     units="px"
     inkscape:window-width="1680"
     inkscape:window-height="962"
     inkscape:window-x="0"
     inkscape:window-y="1"
     inkscape:window-maximized="1" />
  <metadata
     id="metadata1320">
    <rdf:RDF>
      <cc:Work
         rdf:about="">
        <dc:format>image/svg+xml</dc:format>
        <dc:type
           rdf:resource="http://purl.org/dc/dcmitype/StillImage" />
        <dc:title></dc:title>
      </cc:Work>
    </rdf:RDF>
  </metadata>
  <g
     inkscape:label="Ebene 1"
     inkscape:groupmode="layer"
     id="layer1"
     transform="translate(0,-289.85624)">
    <g
       id="g1920"
       transform="matrix(0.63969242,0,0,0.63969242,174.10529,267.37207)">
      <path
         id="path1312"
         d="m -267.9437,35.151247 h -2.77191 a 1.4553538,1.4553538 0 0 0 -1.45471,1.455209 v 6.173787 a 1.4553538,1.4553538 0 0 0 0.16899,0.677995 c -0.0153,0.124169 -0.0495,0.264769 -0.0548,0.38653 -0.005,0.12438 -0.007,0.245877 0.003,0.383963 0.009,0.138086 -0.0217,0.243867 0.13436,0.61804 0.3715,0.889317 1.02042,1.028779 1.48002,1.151864 0.44342,0.118506 0.90874,0.144779 1.62783,0.137451 l 0.61597,-0.0061 a 1.4553538,1.4553538 0 0 0 0.73486,-0.209814 1.4553538,1.4553538 0 0 0 0.50591,0.208253 l 0.11265,0.02275 c 0,8e-5 0,-1.06e-4 0.003,0 h 0.004 c 0.30176,0.06138 0.63125,0.102606 0.94724,0.130731 0.63331,0.05659 1.25905,0.04437 1.90116,-0.05064 0.54303,-0.08041 1.04643,-0.203306 1.51826,-0.386027 0.24157,-0.0935 0.46027,-0.177933 0.7307,-0.365866 0.0209,-0.01455 0.0417,-0.04419 0.063,-0.06096 0.76002,0.577638 1.71485,0.882623 2.68976,0.882623 1.09357,0 2.16556,-0.381582 2.95486,-1.106911 0.79333,0.733637 1.87574,1.106911 2.97397,1.106911 1.06188,0 2.10074,-0.363431 2.88356,-1.047485 0.0487,0.0571 0.0835,0.121893 0.13796,0.17571 0.66669,0.6586 1.57112,0.871775 2.43861,0.871775 0.50554,0 1.0088,-0.07551 1.48881,-0.228415 a 1.4553538,1.4553538 0 0 0 0.52554,-0.301281 c 0.0325,0.01535 0.0587,0.04112 0.0915,0.05583 a 1.4553538,1.4553538 0 0 0 0.0114,0.0053 c 0.73023,0.319485 1.53003,0.46871 2.35231,0.46871 1.13247,0 2.2013,-0.249688 3.05458,-0.895562 0.0544,-0.0412 0.0946,-0.0984 0.14627,-0.14314 0.76798,0.675825 1.79062,1.038702 2.83236,1.038702 0.99348,0 1.98602,-0.318162 2.73214,-0.965835 0.77449,0.632962 1.77366,0.965835 2.79416,0.965835 0.78539,0 1.55591,-0.206032 2.2262,-0.58084 a 1.4553538,1.4553538 0 0 0 1.06919,0.470773 h 1.85674 a 1.4553538,1.4553538 0 0 0 1.4361,-1.226291 c 0.0336,0.035 0.0575,0.07779 0.0925,0.111628 a 1.4553538,1.4553538 0 0 0 0.004,0.0032 c 0.84828,0.815207 2.02584,1.221634 3.22876,1.221634 0.67379,0 1.34337,-0.133747 1.95646,-0.405659 a 1.4553538,1.4553538 0 0 0 0.005,-0.0026 c 0.61302,-0.274796 1.17026,-0.688949 1.56943,-1.240234 a 1.4553538,1.4553538 0 0 0 0.1478,-1.447456 1.4553538,1.4553538 0 0 0 0.28834,-0.866616 v -0.721448 c 4e-5,-1.180915 -0.33778,-2.327672 -1.11777,-3.162591 -0.76919,-0.826585 -1.90889,-1.245923 -3.04787,-1.245923 -0.64648,0 -1.27124,0.15666 -1.85261,0.413411 a 1.4553538,1.4553538 0 0 0 -0.52348,-0.285776 c -0.31895,-0.09559 -0.62944,-0.127635 -0.93585,-0.127635 -0.3098,0 -0.61199,0.07638 -0.90435,0.187589 a 1.4553538,1.4553538 0 0 0 -0.46199,-0.07699 h -1.74098 a 1.4553538,1.4553538 0 0 0 -1.07331,0.4749 c -0.67165,-0.37711 -1.44468,-0.585496 -2.23295,-0.585496 -0.79145,0 -1.57425,0.178064 -2.25256,0.56896 -0.19119,0.110199 -0.34568,0.270907 -0.51522,0.412379 -0.74848,-0.665215 -1.7544,-0.98081 -2.76418,-0.98081 -0.6644,0 -1.31231,0.162825 -1.90686,0.445955 -0.0924,-0.228864 -0.17343,-0.463629 -0.31056,-0.668681 -0.4099,-0.616479 -1.00889,-1.099 -1.68156,-1.400969 -0.66514,-0.300037 -1.39655,-0.437171 -2.14562,-0.437171 -0.74649,0 -1.46952,0.123005 -2.13577,0.390684 -0.45783,0.181477 -0.86468,0.462862 -1.23248,0.790628 a 1.4553538,1.4553538 0 0 0 -1.08934,-0.492469 h -1.85674 a 1.4553538,1.4553538 0 0 0 -1.45521,1.455208 V 37.4966 a 1.4553538,1.4553538 0 0 0 -0.21032,0.140547 c -0.5992,-0.274849 -1.26005,-0.428387 -1.9327,-0.428387 -0.79142,0 -1.57424,0.178012 -2.25258,0.56896 -0.25908,0.149304 -0.48003,0.353589 -0.69813,0.558615 -0.79118,-0.738638 -1.87357,-1.127575 -2.97812,-1.127575 -0.79143,0 -1.57425,0.178012 -2.25259,0.56896 -0.40973,0.236114 -0.75139,0.56642 -1.05161,0.932233 -0.049,-0.04659 -0.0846,-0.104855 -0.13642,-0.148828 -0.9384,-0.796581 -2.17604,-1.113102 -3.50729,-1.113102 -0.18661,0 -0.3601,0.05514 -0.54364,0.07183 v -0.916226 a 1.4553538,1.4553538 0 0 0 -1.45571,-1.455208 z m 0,1.455209 v 2.864935 c 0.51535,-0.377773 1.18186,-0.565362 1.99885,-0.565336 1.10751,0 1.96259,0.255429 2.56571,0.767398 0.60315,0.511942 0.90488,1.232006 0.90488,2.160587 v 0.08993 c 0,0.334328 -0.0404,0.639472 -0.11679,0.918792 -0.0145,0 -0.0632,0.03241 -0.10906,0.0713 -0.29795,0.252572 -0.89731,0.453073 -1.54615,0.516785 -0.37039,0.03638 -1.03737,0.03985 -1.43248,0.0077 -0.0908,-0.0074 -0.21251,-0.02302 -0.34311,-0.04186 0.31036,-0.09398 0.52324,-0.271331 0.63614,-0.534856 0.0876,-0.201268 0.13176,-0.550703 0.13176,-1.048517 0,-0.55081 -0.11491,-0.942605 -0.3452,-1.17565 -0.22479,-0.236537 -0.57333,-0.355017 -1.04489,-0.355017 -0.62505,0 -1.05844,0.153273 -1.29966,0.460454 v 2.277877 c 0.009,0.01138 0.0204,0.02117 0.0294,0.03204 -0.0985,-0.0029 -0.16262,-0.0056 -0.34571,-0.0058 -0.33467,0 -0.88728,0.0048 -1.22782,0.0098 -0.68385,0.01111 -0.75531,0.0026 -1.01545,-0.129196 0,0 -0.0842,-0.03551 -0.12144,-0.06149 -0.034,-0.02381 -0.091,-0.08528 -0.091,-0.08528 v -6.173789 z m 24.78815,0 c 0.57663,0 1.09278,0.102817 1.54823,0.308504 0.45911,0.205687 0.81524,0.499613 1.06866,0.881592 0.25344,0.378327 0.38033,0.811688 0.38033,1.300189 h -1.92804 c 0,-0.326893 -0.10134,-0.580179 -0.30335,-0.760148 -0.19833,-0.179996 -0.46818,-0.270272 -0.80975,-0.270272 -0.34526,0 -0.61862,0.07723 -0.82063,0.23151 -0.19834,0.150575 -0.29766,0.343694 -0.29766,0.578776 0,0.205661 0.10985,0.392774 0.33023,0.561711 0.22037,0.165285 0.60809,0.33782 1.16271,0.517816 0.55459,0.176292 1.01004,0.3674 1.36633,0.573087 0.8668,0.499507 1.30016,1.188191 1.30016,2.066026 0,0.701516 -0.26431,1.252246 -0.79322,1.652614 -0.5289,0.400341 -1.2542,0.600471 -2.17609,0.600471 -0.65011,0 -1.23999,-0.115358 -1.7689,-0.346762 -0.52522,-0.235056 -0.92146,-0.554567 -1.18959,-0.958586 -0.26445,-0.407696 -0.39687,-0.876194 -0.39687,-1.405096 h 1.93942 c 0,0.429736 0.10983,0.747236 0.3302,0.952923 0.22405,0.20201 0.58621,0.303345 1.08574,0.303345 0.31954,0 0.57081,-0.06824 0.75446,-0.204126 0.18733,-0.139568 0.28112,-0.334195 0.28112,-0.583935 0,-0.282814 -0.10081,-0.503026 -0.30281,-0.660956 -0.19834,-0.15793 -0.54946,-0.321442 -1.05265,-0.490405 -0.50318,-0.168937 -0.91451,-0.332476 -1.23404,-0.490406 -1.03942,-0.510513 -1.55909,-1.211738 -1.55909,-2.104257 0,-0.444421 0.12841,-0.83566 0.38553,-1.173586 0.26077,-0.341577 0.62844,-0.605896 1.10225,-0.793221 0.47379,-0.191003 1.00597,-0.286808 1.59732,-0.286808 z m -6.31434,0.688843 h 1.85672 v 1.482089 h 0.98083 V 40.0662 h -0.98083 v 2.727484 c 0,0.224049 0.0406,0.380021 0.12144,0.46818 0.0808,0.08813 0.2403,0.132292 0.47906,0.132292 0.18364,0 0.33813,-0.01111 0.46302,-0.03307 v 1.327573 c -0.33425,0.106495 -0.68337,0.159676 -1.04699,0.159676 -0.63907,0 -1.11106,-0.150468 -1.41591,-0.451643 -0.30486,-0.301176 -0.45734,-0.75864 -0.45734,-1.372024 V 40.0662 h -0.76017 v -1.288812 h 0.76017 z m 10.13373,0.491437 c -0.003,0 -0.003,0.0032 -0.004,0.0042 0,0 -0.003,0 -0.004,0.0027 z m 15.20579,0.0098 c 0,0 -0.003,0.0027 -0.003,0.0032 -0.003,0 -0.004,0 -0.005,0.0027 z m -34.86661,0.87024 c 0.89252,0 1.59626,0.277389 2.11048,0.831982 0.51422,0.550942 0.77102,1.302333 0.77102,2.253615 v 0.06615 c 0,0.929244 -0.25881,1.667061 -0.77671,2.214351 -0.51419,0.543587 -1.21192,0.815446 -2.09341,0.815446 -0.84844,0 -1.53016,-0.253312 -2.0443,-0.760174 -0.51422,-0.510514 -0.79108,-1.201235 -0.83148,-2.071688 l -0.006,-0.31369 c 0,-0.595021 0.11586,-1.124188 0.34726,-1.586971 0.23138,-0.46646 0.56343,-0.8246 0.99685,-1.074367 0.43339,-0.249766 0.94202,-0.37465 1.52598,-0.37465 z m 5.92884,0 c 0.89252,0 1.59576,0.277389 2.10997,0.831982 0.51419,0.550942 0.77153,1.302333 0.77153,2.253615 v 0.06615 c 0,0.929244 -0.25884,1.667061 -0.77671,2.214351 -0.51419,0.543587 -1.21193,0.815446 -2.09341,0.815446 -0.84844,0 -1.53011,-0.253312 -2.04431,-0.760174 -0.51421,-0.510514 -0.7916,-1.201235 -0.832,-2.071688 l -0.005,-0.31369 c 0,-0.595021 0.11535,-1.124188 0.34673,-1.586971 0.23141,-0.46646 0.56396,-0.8246 0.99738,-1.074367 0.43338,-0.249766 0.94202,-0.37465 1.52598,-0.37465 z m 21.48914,0 c 0.89252,0 1.59573,0.277389 2.10995,0.831982 0.51419,0.550942 0.77152,1.302333 0.77152,2.253615 v 0.06615 c 0,0.929244 -0.25881,1.667061 -0.77668,2.214351 -0.51422,0.543587 -1.21246,0.815446 -2.09394,0.815446 -0.84844,0 -1.52961,-0.253312 -2.0438,-0.760174 -0.51422,-0.510514 -0.79158,-1.201235 -0.83198,-2.071688 l -0.005,-0.31369 c 0,-0.595021 0.11538,-1.124188 0.34676,-1.586971 0.23138,-0.46646 0.56396,-0.8246 0.99735,-1.074367 0.43341,-0.249766 0.94202,-0.37465 1.52601,-0.37465 z m 6.41355,0 c 0.19834,0 0.3709,0.02196 0.51782,0.06615 l -0.0331,1.724448 -0.61135,-0.04392 c -0.58398,0 -0.95869,0.183568 -1.12395,0.550863 v 3.773937 h -1.85674 v -5.960877 h 1.74099 l 0.0605,0.765836 c 0.31217,-0.583988 0.74757,-0.876432 1.30584,-0.876432 z m 3.31195,0 c 0.83744,0 1.49852,0.260826 1.98335,0.782373 0.48482,0.517896 0.7271,1.24169 0.72707,2.170933 v 0.721413 h -3.69123 c 0.0661,0.334221 0.21109,0.597085 0.43511,0.788061 0.22405,0.191003 0.51448,0.286279 0.87074,0.286279 0.58767,0 1.04662,-0.205634 1.37719,-0.617008 l 0.84851,1.003035 c -0.23137,0.319538 -0.55991,0.574861 -0.98597,0.765837 -0.42238,0.187325 -0.87783,0.280617 -1.36633,0.280617 -0.91456,0 -1.65492,-0.271859 -2.22054,-0.815446 -0.56563,-0.54729 -0.84852,-1.257512 -0.84852,-2.131668 v -0.154517 c 0,-0.609679 0.11237,-1.147895 0.33642,-1.614355 0.22772,-0.466461 0.55827,-0.826109 0.99166,-1.079527 0.43341,-0.257095 0.94755,-0.386027 1.54254,-0.386027 z m -15.25746,0 c 0.77499,0 1.38994,0.214657 1.84536,0.644393 0.45546,0.429736 0.68316,1.011581 0.68316,1.746144 h -1.74046 c 0,-0.308504 -0.0757,-0.54528 -0.22635,-0.710538 -0.15057,-0.165286 -0.35221,-0.248047 -0.60563,-0.248047 -0.48115,0 -0.76205,0.306969 -0.84286,0.920353 -0.0257,0.194654 -0.0388,0.462491 -0.0388,0.804069 0,0.598699 0.0717,1.014015 0.21498,1.24542 0.14327,0.231378 0.37097,0.346736 0.68318,0.346736 0.26077,0 0.46238,-0.06972 0.60563,-0.209285 0.14324,-0.143246 0.21349,-0.341366 0.20981,-0.594784 h 1.74046 c 0,0.653759 -0.23474,1.189964 -0.70485,1.608667 -0.46646,0.41873 -1.06889,0.627883 -1.80713,0.627883 -0.8668,0 -1.54998,-0.27186 -2.04949,-0.815446 -0.49951,-0.543613 -0.7493,-1.296485 -0.7493,-2.258801 v -0.07699 c 0,-0.60235 0.11036,-1.133025 0.33073,-1.59213 0.22405,-0.462809 0.54504,-0.81743 0.96374,-1.063519 0.41873,-0.249767 0.9148,-0.374121 1.48778,-0.374121 z m -21.88602,1.431952 c -0.62071,0 -0.95678,0.460957 -1.00819,1.382844 l -0.005,0.336418 c 0,0.550942 0.0863,0.954723 0.25889,1.211818 0.17262,0.257096 0.42794,0.385498 0.76584,0.385498 0.66112,0 0.9987,-0.508608 1.01338,-1.526011 v -0.18706 c 0,-1.068811 -0.34158,-1.603507 -1.02476,-1.603507 z m 5.92884,0 c -0.62071,0 -0.95679,0.460957 -1.00819,1.382844 l -0.005,0.336418 c 0,0.550942 0.0863,0.954723 0.25889,1.211818 0.17261,0.257096 0.42794,0.385498 0.76584,0.385498 0.66111,0 0.99869,-0.508608 1.01338,-1.526011 v -0.18706 c 0,-1.068811 -0.34158,-1.603507 -1.02476,-1.603507 z m 21.48914,0 c -0.62071,0 -0.95686,0.460957 -1.00819,1.382844 l -0.006,0.336418 c 0,0.550942 0.0868,0.954723 0.25939,1.211818 0.17264,0.257096 0.42744,0.385498 0.76534,0.385498 0.66111,0 0.9992,-0.508608 1.01388,-1.526011 v -0.18706 c 0,-1.068811 -0.34158,-1.603507 -1.02473,-1.603507 z m 9.71413,0 c -0.54359,0 -0.86659,0.36015 -0.96944,1.080029 h 1.87328 v -0.14314 c 0.007,-0.297524 -0.0679,-0.527235 -0.22585,-0.688842 -0.15793,-0.165286 -0.38415,-0.248047 -0.67799,-0.248047 z m -0.0992,0.627856 0.13798,0.159173 h -0.29713 z m -40.51689,2.593128 c 0.0907,0 0.15652,0.570786 0.0868,0.753454 -0.0635,0.166317 -0.20175,0.262626 -0.60047,0.41701 -0.35198,0.136287 -0.74594,0.235215 -1.20613,0.303345 -0.31928,0.04731 -1.2205,0.07101 -1.55856,0.04082 v 0 c -0.25257,-0.02249 -0.61341,-0.07183 -0.79012,-0.108003 l -0.11835,-0.02381 -0.0512,-0.135414 c -0.038,-0.09999 -0.0653,-0.140547 -0.10592,-0.156581 -0.33549,-0.132133 -0.52771,-0.172587 -0.82063,-0.172587 -0.15002,0 -0.39018,0.04765 -0.42735,0.08475 -0.0103,0.01032 -0.045,0.09401 -0.0775,0.186028 l -0.0589,0.166926 -0.61648,0.0061 c -0.68826,0.0069 -0.95393,-0.01218 -1.23714,-0.08785 -0.29048,-0.07779 -0.4604,-0.179467 -0.51366,-0.30697 -0.0511,-0.122555 -0.0304,-0.602271 0.0372,-0.853678 l 0.0243,-0.08993 0.12195,0.06152 c 0.26014,0.131313 0.33163,0.140309 1.01545,0.12917 0.34054,-0.005 0.89265,-0.0098 1.22732,-0.0098 0.60555,0 0.6101,0 0.92707,0.06977 0.17518,0.03821 0.37214,0.08811 0.4377,0.110595 0.17701,0.0608 0.88953,0.184283 1.21645,0.21082 0.3951,0.03212 1.06262,0.02815 1.43301,-0.0082 0.64884,-0.06371 1.24815,-0.264186 1.54615,-0.516757 0.0461,-0.0391 0.0954,-0.0708 0.10956,-0.0708 z m -8.67805,0.906913 c 0.006,0.0029 0.0243,0.0074 0.031,0.01032 0.003,0 0.0594,0.03204 0.0594,0.03204 z"
         style="color:#000000;font-style:normal;font-variant:normal;font-weight:900;font-stretch:normal;font-size:medium;line-height:125%;font-family:Roboto;-inkscape-font-specification:'Roboto Heavy';font-variant-ligatures:normal;font-variant-position:normal;font-variant-caps:normal;font-variant-numeric:normal;font-variant-alternates:normal;font-feature-settings:normal;text-indent:0;text-align:start;text-decoration:none;text-decoration-line:none;text-decoration-style:solid;text-decoration-color:#000000;letter-spacing:-0.41804165px;word-spacing:0px;text-transform:none;writing-mode:lr-tb;direction:ltr;text-orientation:mixed;dominant-baseline:auto;baseline-shift:baseline;text-anchor:start;white-space:normal;shape-padding:0;clip-rule:nonzero;display:inline;overflow:visible;visibility:visible;opacity:1;isolation:auto;mix-blend-mode:normal;color-interpolation:sRGB;color-interpolation-filters:linearRGB;solid-color:#000000;solid-opacity:1;vector-effect:none;fill:#000000;fill-opacity:1;fill-rule:nonzero;stroke:none;stroke-width:2.9104166;stroke-linecap:round;stroke-linejoin:round;stroke-miterlimit:4;stroke-dasharray:none;stroke-dashoffset:0;stroke-opacity:1;color-rendering:auto;image-rendering:auto;shape-rendering:auto;text-rendering:auto;enable-background:accumulate"
         inkscape:connector-curvature="0" />
      <path
         inkscape:connector-curvature="0"
         id="path1189"
         style="font-style:normal;font-variant:normal;font-weight:900;font-stretch:normal;font-size:medium;line-height:125%;font-family:Roboto;-inkscape-font-specification:'Roboto Heavy';letter-spacing:-0.41804165px;word-spacing:0px;fill:none;fill-opacity:1;stroke:none;stroke-width:0.28207812px;stroke-linecap:butt;stroke-linejoin:miter;stroke-opacity:1"
         d="m -261.86658,41.702678 q 0,-0.89252 0.34709,-1.58669 0.34709,-0.69969 0.99719,-1.07432 0.6501,-0.37464 1.52608,-0.37464 1.33877,0 2.11008,0.83191 0.77131,0.8264 0.77131,2.25332 v 0.0661 q 0,1.393861 -0.77682,2.214761 -0.77131,0.81538 -2.09355,0.81538 -1.27265,0 -2.04396,-0.76029 -0.77131,-0.7658 -0.83191,-2.07151 z m 1.85665,0.11569 q 0,0.8264 0.25894,1.21206 0.25893,0.38565 0.76579,0.38565 0.99168,0 1.01372,-1.52609 v -0.18731 q 0,-1.60322 -1.02474,-1.60322 -0.93107,0 -1.0082,1.38284 z" />
      <path
         inkscape:connector-curvature="0"
         id="path1191"
         style="font-style:normal;font-variant:normal;font-weight:900;font-stretch:normal;font-size:medium;line-height:125%;font-family:Roboto;-inkscape-font-specification:'Roboto Heavy';letter-spacing:-0.41804165px;word-spacing:0px;fill:none;fill-opacity:1;stroke:none;stroke-width:0.28207812px;stroke-linecap:butt;stroke-linejoin:miter;stroke-opacity:1"
         d="m -255.93786,41.702678 q 0,-0.89252 0.34708,-1.58669 0.34709,-0.69969 0.99719,-1.07432 0.65011,-0.37464 1.52609,-0.37464 1.33877,0 2.11008,0.83191 0.7713,0.8264 0.7713,2.25332 v 0.0661 q 0,1.393861 -0.77681,2.214761 -0.77131,0.81538 -2.09355,0.81538 -1.27266,0 -2.04397,-0.76029 -0.7713,-0.7658 -0.83191,-2.07151 z m 1.85664,0.11569 q 0,0.8264 0.25894,1.21206 0.25894,0.38565 0.7658,0.38565 0.99168,0 1.01372,-1.52609 v -0.18731 q 0,-1.60322 -1.02474,-1.60322 -0.93108,0 -1.00821,1.38284 z" />
      <path
         inkscape:connector-curvature="0"
         id="path1193"
         style="font-style:normal;font-variant:normal;font-weight:900;font-stretch:normal;font-size:medium;line-height:125%;font-family:Roboto;-inkscape-font-specification:'Roboto Heavy';letter-spacing:-0.41804165px;word-spacing:0px;fill:none;fill-opacity:1;stroke:none;stroke-width:0.28207812px;stroke-linecap:butt;stroke-linejoin:miter;stroke-opacity:1"
         d="m -247.61259,37.295208 v 1.48201 h 0.98067 v 1.28918 h -0.98067 v 2.72712 q 0,0.33607 0.12121,0.4683 0.1212,0.13222 0.47931,0.13222 0.27547,0 0.46279,-0.0331 v 1.32775 q -0.50135,0.15977 -1.04678,0.15977 -0.95862,0 -1.4159,-0.45177 -0.45727,-0.45176 -0.45727,-1.37182 v -2.95852 h -0.76029 v -1.28918 h 0.76029 v -1.48201 z" />
      <path
         inkscape:connector-curvature="0"
         id="path1195"
         style="font-style:normal;font-variant:normal;font-weight:900;font-stretch:normal;font-size:medium;line-height:125%;font-family:Roboto;-inkscape-font-specification:'Roboto Heavy';letter-spacing:-0.41804165px;word-spacing:0px;fill:none;fill-opacity:1;stroke:none;stroke-width:0.28207812px;stroke-linecap:butt;stroke-linejoin:miter;stroke-opacity:1"
         d="m -242.09156,42.606208 q 0,-0.42422 -0.30302,-0.66112 -0.2975,-0.23691 -1.05228,-0.49033 -0.75478,-0.25343 -1.23409,-0.49034 -1.55914,-0.76579 -1.55914,-2.10456 0,-0.66663 0.38565,-1.17349 0.39116,-0.51237 1.10187,-0.79335 0.7107,-0.28648 1.59771,-0.28648 0.86496,0 1.54812,0.30852 0.68867,0.30852 1.06881,0.88149 0.38015,0.56747 0.38015,1.30021 h -1.92827 q 0,-0.49033 -0.30302,-0.76029 -0.2975,-0.26996 -0.80987,-0.26996 -0.51788,0 -0.82089,0.23139 -0.2975,0.22589 -0.2975,0.57849 0,0.30852 0.33056,0.56195 0.33056,0.24792 1.16247,0.51788 0.83191,0.26444 1.36631,0.57297 1.30021,0.74927 1.30021,2.066 0,1.05228 -0.79335,1.6528 -0.79334,0.60052 -2.17619,0.60052 -0.97515,0 -1.7685,-0.34709 -0.78783,-0.3526 -1.19001,-0.95863 -0.39667,-0.61153 -0.39667,-1.40488 h 1.93928 q 0,0.6446 0.33056,0.95312 0.33607,0.30301 1.08534,0.30301 0.47931,0 0.75478,-0.20384 0.28098,-0.20936 0.28098,-0.58399 z" />
      <path
         inkscape:connector-curvature="0"
         id="path1198"
         style="font-style:normal;font-variant:normal;font-weight:900;font-stretch:normal;font-size:medium;line-height:125%;font-family:Roboto;-inkscape-font-specification:'Roboto Heavy';letter-spacing:-0.41804165px;word-spacing:0px;fill:none;fill-opacity:1;stroke:none;stroke-width:0.28207812px;stroke-linecap:butt;stroke-linejoin:miter;stroke-opacity:1"
         d="m -237.138,43.416078 q 0.39116,0 0.60603,-0.20936 0.21486,-0.21486 0.20935,-0.595 h 1.74095 q 0,0.98066 -0.70519,1.60872 -0.69969,0.62807 -1.80707,0.62807 -1.3002,0 -2.04947,-0.81538 -0.74927,-0.81539 -0.74927,-2.25883 v -0.0771 q 0,-0.90354 0.33056,-1.5922 0.33607,-0.69418 0.96414,-1.0633 0.62806,-0.37464 1.48752,-0.37464 1.16247,0 1.84562,0.64459 0.68316,0.6446 0.68316,1.74646 h -1.74095 q 0,-0.46278 -0.22588,-0.7107 -0.22588,-0.24792 -0.60603,-0.24792 -0.72172,0 -0.84293,0.92006 -0.0386,0.29199 -0.0386,0.80436 0,0.89802 0.21486,1.24511 0.21487,0.34709 0.68316,0.34709 z" />
      <path
         inkscape:connector-curvature="0"
         id="path1200"
         style="font-style:normal;font-variant:normal;font-weight:900;font-stretch:normal;font-size:medium;line-height:125%;font-family:Roboto;-inkscape-font-specification:'Roboto Heavy';letter-spacing:-0.41804165px;word-spacing:0px;fill:none;fill-opacity:1;stroke:none;stroke-width:0.28207812px;stroke-linecap:butt;stroke-linejoin:miter;stroke-opacity:1"
         d="m -234.44877,41.702678 q 0,-0.89252 0.34708,-1.58669 0.34709,-0.69969 0.99719,-1.07432 0.65011,-0.37464 1.52609,-0.37464 1.33877,0 2.11008,0.83191 0.7713,0.8264 0.7713,2.25332 v 0.0661 q 0,1.393861 -0.77681,2.214761 -0.77131,0.81538 -2.09355,0.81538 -1.27266,0 -2.04396,-0.76029 -0.77131,-0.7658 -0.83191,-2.07151 z m 1.85664,0.11569 q 0,0.8264 0.25894,1.21206 0.25894,0.38565 0.7658,0.38565 0.99168,0 1.01372,-1.52609 v -0.18731 q 0,-1.60322 -1.02474,-1.60322 -0.93108,0 -1.00821,1.38284 z" />
      <g
         style="fill:none;fill-opacity:1"
         id="g1210"
         transform="matrix(0.96125231,0,0,0.96125231,342.24896,-216.4343)">
        <path
           style="font-style:normal;font-variant:normal;font-weight:900;font-stretch:normal;font-size:medium;line-height:125%;font-family:Roboto;-inkscape-font-specification:'Roboto Heavy';letter-spacing:-0.41804165px;word-spacing:0px;fill:none;fill-opacity:1;stroke:none;stroke-width:0.3515313px;stroke-linecap:butt;stroke-linejoin:miter;stroke-opacity:1"
           d="m -634.78877,263.24078 -2.88353,0.001 v 6.42282 c 0,0 0.0589,0.0637 0.0942,0.0884 0.0387,0.0271 0.1266,0.0641 0.1266,0.0641 0.27064,0.13663 0.34488,0.14597 1.05627,0.13438 0.35428,-0.005 0.92927,-0.0103 1.27743,-0.0103 0.19048,2.3e-4 0.25726,0.003 0.35968,0.006 -0.009,-0.0114 -0.0212,-0.0217 -0.0305,-0.0336 v -2.36938 c 0.25096,-0.31956 0.70162,-0.47902 1.35186,-0.47902 0.49057,0 0.85289,0.12287 1.08675,0.36896 0.23956,0.24244 0.35917,0.65016 0.35917,1.22317 0,0.51789 -0.0458,0.88154 -0.13694,1.0909 -0.11743,0.27416 -0.33912,0.45879 -0.66199,0.55655 0.13589,0.0196 0.26257,0.0357 0.35708,0.0434 0.411,0.0334 1.10503,0.0295 1.49035,-0.008 0.675,-0.0663 1.2987,-0.27469 1.60869,-0.53742 0.0478,-0.0405 0.0981,-0.0736 0.11319,-0.0739 0.0795,-0.29057 0.12141,-0.6082 0.12141,-0.95602 v -0.0935 c 0,-0.96602 -0.31358,-1.71535 -0.94101,-2.24793 -0.62744,-0.5326 -1.51744,-0.7984 -2.6696,-0.7984 -0.84992,-3e-5 -1.54281,0.19558 -2.07896,0.58859 z"
           id="path1206"
           inkscape:connector-curvature="0"
           sodipodi:nodetypes="cccaccccccscsccccccsscccc" />
        <path
           inkscape:connector-curvature="0"
           id="path1208"
           d="m -632.51668,271.80112 c -0.26275,-0.0234 -0.63854,-0.0748 -0.82239,-0.11242 l -0.12274,-0.0251 -0.0533,-0.1405 c -0.0395,-0.10401 -0.0682,-0.14634 -0.11047,-0.163 -0.34902,-0.13747 -0.54898,-0.17952 -0.85369,-0.17952 -0.15607,0 -0.40561,0.0495 -0.4443,0.0881 -0.0106,0.0106 -0.0468,0.0975 -0.0806,0.1932 l -0.0614,0.17401 -0.64122,0.006 c -0.71599,0.007 -0.99278,-0.0127 -1.28741,-0.0915 -0.3022,-0.0809 -0.47887,-0.18635 -0.53428,-0.31897 -0.0532,-0.1275 -0.0314,-0.62701 0.0389,-0.88857 l 0.0251,-0.0934 0.12688,0.064 c 0.27063,0.13662 0.34482,0.14606 1.0562,0.13447 0.35427,-0.005 0.92898,-0.0102 1.27714,-0.01 0.62995,7.6e-4 0.63461,7.7e-4 0.96434,0.0729 0.18223,0.0397 0.38713,0.0913 0.45533,0.11473 0.18415,0.0633 0.92539,0.19172 1.2655,0.21936 0.41101,0.0334 1.1052,0.0295 1.49051,-0.008 0.67502,-0.0663 1.29874,-0.27479 1.60875,-0.53756 0.048,-0.0407 0.0994,-0.074 0.11419,-0.074 0.0944,0 0.16264,0.5942 0.0901,0.78422 -0.0661,0.17304 -0.20993,0.27284 -0.62473,0.43344 -0.36617,0.14178 -0.77617,0.24497 -1.25492,0.31584 -0.33214,0.0492 -1.26969,0.0735 -1.62141,0.0421 z"
           style="opacity:1;fill:none;fill-opacity:1;stroke:none;stroke-width:0.44492123;stroke-miterlimit:4;stroke-dasharray:none;stroke-opacity:1" />
      </g>
    </g>
  </g>
</svg>
