<?xml version="1.0" standalone="no"?>
<!DOCTYPE svg PUBLIC "-//W3C//DTD SVG 20010904//EN"
 "http://www.w3.org/TR/2001/REC-SVG-20010904/DTD/svg10.dtd">
<svg version="1.0" xmlns="http://www.w3.org/2000/svg"
 width="1768.000000pt" height="1768.000000pt" viewBox="0 0 1768.000000 1768.000000"
 preserveAspectRatio="xMidYMid meet">
<metadata>
Created by potrace 1.11, written by Peter Selinger 2001-2013
</metadata>
<g transform="translate(0.000000,1768.000000) scale(0.100000,-0.100000)"
fill="#000000" stroke="none">
<path d="M1845 17549 c-367 -35 -743 -182 -1043 -406 -99 -75 -267 -237 -345
-333 -251 -311 -405 -686 -446 -1089 -15 -144 -15 -10277 -1 -10422 23 -228
92 -469 193 -683 l55 -114 -18 -125 c-50 -337 -69 -812 -51 -1242 15 -352 38
-471 146 -749 137 -354 305 -646 509 -882 320 -373 721 -618 1296 -792 637
-194 1044 -268 1725 -312 249 -17 1280 -23 1900 -11 488 9 574 13 670 30 295
54 542 151 776 307 l114 74 40 -30 c179 -135 402 -253 602 -319 230 -77 805
-182 1363 -250 434 -53 572 -64 770 -61 386 5 441 5 855 -9 1007 -33 1754 29
2695 221 719 146 1373 348 1997 614 511 218 872 455 1167 765 204 214 405 490
526 721 107 204 239 585 294 844 62 299 61 465 -8 837 -14 76 -35 211 -46 300
-44 347 -128 665 -241 916 l-29 64 24 141 c91 527 130 1148 108 1714 -7 169
-19 377 -27 462 -108 1120 -442 2132 -993 3015 -384 615 -873 1148 -1457 1585
-999 749 -2248 1222 -3705 1404 -491 62 -798 80 -1320 81 -488 0 -467 2 -970
-85 -157 -28 -313 -53 -347 -56 l-63 -7 0 999 c0 618 -4 1033 -10 1089 -79
687 -507 1294 -1124 1594 -187 91 -339 140 -571 184 -109 21 -126 21 -2515 23
-1323 1 -2445 -2 -2495 -7z m4685 -4345 c0 -1279 3 -2324 8 -2322 4 2 72 47
152 100 560 373 1212 613 1990 732 405 62 727 80 1265 73 592 -8 968 -41 1465
-128 1895 -330 3217 -1350 3740 -2884 156 -458 235 -917 261 -1508 27 -614
-24 -1205 -147 -1717 l-35 -145 -47 -27 c-26 -15 -87 -59 -137 -99 -157 -125
-272 -197 -474 -298 -454 -228 -1033 -397 -1698 -495 -410 -61 -679 -76 -1418
-83 -591 -5 -946 3 -1235 28 -174 15 -534 60 -543 68 -4 4 26 17 65 30 40 13
129 50 197 82 384 183 648 468 780 843 122 346 175 808 176 1536 0 437 -7 558
-45 813 -143 943 -585 1464 -1415 1668 -476 117 -1182 114 -1745 -7 -464 -99
-870 -316 -1099 -586 l-61 -72 0 -1844 c0 -1792 1 -1845 19 -1870 l19 -27
-1072 -5 c-2026 -9 -2456 -7 -2582 13 -191 30 -277 60 -554 195 -160 77 -195
98 -258 157 l-72 67 0 5019 0 5019 2250 0 2250 0 0 -2326z m8912 -8601 c47
-54 92 -202 125 -413 25 -164 26 -624 1 -722 -59 -230 -207 -381 -538 -546
-606 -304 -1513 -564 -2405 -691 -485 -69 -1679 -111 -2320 -81 -410 19 -1047
99 -1525 191 -193 37 -170 20 -225 167 -66 177 -111 266 -154 305 -67 60 -528
217 -782 266 -190 36 -308 46 -554 46 -202 -1 -261 -4 -370 -23 -154 -27 -263
-54 -327 -84 -61 -27 -72 -50 -198 -403 l-68 -190 -409 -8 c-511 -10 -1633 -2
-1813 12 -420 34 -709 90 -1018 196 -226 77 -397 172 -503 279 -114 115 -138
195 -146 496 -8 280 14 572 62 852 14 80 72 319 80 326 1 1 90 -40 196 -92
107 -52 241 -111 299 -130 258 -86 381 -92 1679 -77 1250 14 2262 14 2498 1
95 -5 219 -16 275 -25 226 -34 816 -170 1123 -260 424 -124 1469 -301 2035
-345 567 -44 1644 -36 2215 16 969 87 1898 373 2430 747 39 27 81 60 95 72 55
50 183 135 205 135 12 0 29 -8 37 -17z"/>
</g>
</svg>
